<?xml version="1.0" encoding="iso-8859-1"?>
<!-- Generator: Adobe Illustrator 19.0.0, SVG Export Plug-In . SVG Version: 6.00 Build 0)  -->
<svg version="1.1" id="Layer_1" xmlns="http://www.w3.org/2000/svg" xmlns:xlink="http://www.w3.org/1999/xlink" x="0px" y="0px"
	 viewBox="0 0 512.213 512.213" style="enable-background:new 0 0 512.213 512.213;" xml:space="preserve">
<g transform="translate(0 1)">
	<path style="fill:#FD9808;" d="M145.173,93.08v-51.2h17.067V7.747H59.84V41.88h17.067v110.933l-47.787,40.96
		c-6.827,6.827-2.56,18.773,6.827,18.773h40.96v256H59.84v34.133h392.533v-34.133h-17.067v-256h40.96
		c9.387,0,13.653-11.947,6.827-17.92L286.827,20.547c-17.067-16.213-44.373-16.213-61.44,0L145.173,93.08z"/>
	<path style="fill:#FFDD09;" d="M145.173,93.08v-51.2h17.067V7.747H59.84V41.88h17.067v110.933l-47.787,40.96
		c-6.827,6.827-2.56,18.773,6.827,18.773h40.96v256H59.84v34.133h366.933v-34.133h-17.067v-256h40.96
		c9.387,0,13.653-11.947,6.827-17.92L261.227,20.547c-17.067-16.213-22.187-16.213-39.253,0L145.173,93.08z"/>
	<path d="M452.373,511.213H59.84c-5.12,0-8.533-3.413-8.533-8.533v-34.133c0-5.12,3.413-8.533,8.533-8.533h8.533V221.08H35.947
		c-7.68,0-15.36-5.12-17.92-11.947c-2.56-7.68-0.853-15.36,5.12-21.333l45.227-39.253V50.413H59.84c-5.12,0-8.533-3.413-8.533-8.533
		V7.747c0-5.12,3.413-8.533,8.533-8.533h102.4c5.12,0,8.533,3.413,8.533,8.533V41.88c0,5.12-3.413,8.533-8.533,8.533h-8.533v23.04
		l65.707-59.733c20.48-19.627,52.907-19.627,73.387,0L489.067,187.8c5.973,5.12,7.68,13.653,5.12,20.48
		c-2.56,7.68-9.387,11.947-17.92,11.947H443.84V459.16h8.533c2.56,0,4.267,0.853,5.973,2.56s2.56,3.413,2.56,5.973v34.133
		C460.907,507.8,456.64,511.213,452.373,511.213z M68.373,494.147H443.84V477.08h-8.533c-5.12,0-8.533-3.413-8.533-8.533v-256
		c0-5.12,3.413-8.533,8.533-8.533h40.96c0,0,0.853,0,1.707-0.853c0.853-0.853,0-1.707-0.853-1.707L280.853,27.373
		c-14.507-13.653-35.84-13.653-49.493,0l-80.213,73.387c-2.56,2.56-5.973,2.56-9.387,1.707c-3.413-2.56-5.12-5.973-5.12-9.387v-51.2
		c0-5.12,3.413-8.533,8.533-8.533h8.533V16.28H68.373v17.067h8.533c5.12,0,8.533,3.413,8.533,8.533v110.933
		c0,2.56-0.853,5.12-2.56,6.827L35.093,200.6c-0.853,0.853-0.853,1.707-0.853,2.56c0,0.853,0.853,0.853,1.707,0.853h40.96
		c5.12,0,8.533,3.413,8.533,8.533v256c0,5.12-3.413,8.533-8.533,8.533h-8.533V494.147z"/>
	<path d="M281.707,340.547c-3.413,0-5.973-1.707-7.68-5.12l-17.92-35.84l-17.92,35.84c-1.707,3.413-5.12,5.12-9.387,4.267
		c-3.413-0.853-6.827-3.413-6.827-6.827l-8.533-59.733c-0.853-4.267,2.56-9.387,6.827-9.387c5.12-0.853,9.387,2.56,9.387,6.827
		L233.92,303l13.653-26.453c2.56-5.973,12.8-5.973,15.36,0L276.587,303l4.267-32.427c0.853-4.267,5.12-7.68,9.387-6.827
		s7.68,5.12,6.827,9.387l-8.533,59.733c-0.853,3.413-3.413,6.827-6.827,6.827C282.56,340.547,282.56,340.547,281.707,340.547z"/>
	<path d="M384.107,340.547c-3.413,0-5.973-1.707-7.68-5.12l-17.92-35.84l-17.92,35.84c-1.707,3.413-5.12,5.12-9.387,4.267
		c-3.413-0.853-6.827-3.413-6.827-6.827l-8.533-59.733c-0.853-4.267,2.56-9.387,6.827-9.387c4.267-0.853,9.387,2.56,9.387,6.827
		L336.32,303l13.653-26.453c2.56-5.973,11.947-5.973,15.36,0L378.987,303l4.267-32.427c0.853-4.267,5.12-7.68,9.387-6.827
		s7.68,5.12,6.827,9.387l-8.533,59.733c-0.853,3.413-3.413,6.827-6.827,6.827C384.96,340.547,384.96,340.547,384.107,340.547z"/>
	<path d="M179.307,340.547c-3.413,0-5.973-1.707-7.68-5.12l-17.92-35.84l-17.92,35.84c-1.707,3.413-5.12,5.12-9.387,4.267
		c-3.413-0.853-6.827-3.413-6.827-6.827l-8.533-59.733c-0.853-4.267,2.56-9.387,6.827-9.387c4.267-0.853,9.387,2.56,9.387,6.827
		L131.52,303l13.653-26.453c2.56-5.973,12.8-5.973,15.36,0L174.187,303l4.267-32.427c0.853-4.267,5.12-7.68,9.387-6.827
		s7.68,5.12,6.827,9.387l-8.533,59.733c-0.853,3.413-3.413,6.827-6.827,6.827C180.16,340.547,180.16,340.547,179.307,340.547z"/>
</g>
<g>
</g>
<g>
</g>
<g>
</g>
<g>
</g>
<g>
</g>
<g>
</g>
<g>
</g>
<g>
</g>
<g>
</g>
<g>
</g>
<g>
</g>
<g>
</g>
<g>
</g>
<g>
</g>
<g>
</g>
</svg>
