<svg enable-background="new 0 0 226.8 226.8" viewBox="0 0 226.8 226.8" xmlns="http://www.w3.org/2000/svg" xmlns:xlink="http://www.w3.org/1999/xlink"><path d="m145 161.4c-7.6 4.2-31.6 14.6-31.6 14.6s-25.4-11-35.3-17.5c-6.3-4.2-9-7.4-13.1-13.6-2.7-4.1-4.4-9.7-5.1-13-.4-1.6-.6-3.3-.6-4.9v-67s26.3-10.2 54.1-9.2c36.5 1.3 54.1 9.2 54.1 9.2v70.9.7c-.3 1.8-1.9 10.8-6.9 16.6-3.4 3.8-9.2 9.7-15.6 13.2z" fill="#0763af"/><path d="m164.1 128.1s2 14.7-17.1 27.9c-8.6 6-33.3 16.5-33.3 16.5s-25.7-11.3-33.3-16.7c-15.4-11.1-17.1-25.2-17.1-25.2v-30.8s21.7-8.7 50.1-8.7c35.7 0 50.8 8.7 50.8 8.7v28.3z" fill="#fff"/><path d="m164.1 128.1s2 14.7-17.1 27.9c-8.6 6-33.3 16.5-33.3 16.5s-25.7-11.3-33.3-16.7c-15.4-11.1-17.1-25.2-17.1-25.2v-30.8s21.7-8.7 50.1-8.7c35.7 0 50.8 8.7 50.8 8.7v28.3z" fill="#fff"/><path d="m164.1 129.2s2 14.3-17.1 27.3c-8.6 5.8-33.3 16.1-33.3 16.1s-25.8-11-33.3-16.4c-15.4-10.8-17.1-24.6-17.1-24.6v-30s21.7-8.5 50.1-8.5c35.7 0 50.8 8.5 50.8 8.5v27.6z" fill="#fded0a"/><g fill="#d91f26"><path d="m131.5 143.2-1-.8s4-2.7 4.4-8.7c.5-7.2-9.8-12.5-8.7-24.1.6-5.9 6.1-9.3 6.1-9.3l.9.3s-4.3 4.2-5 8.6c-1.6 10.1 8.6 15.5 9 21.2.6 9.8-5.7 12.8-5.7 12.8z"/><path d="m117.6 154.1c-14.8 5.7-14.3-3-14.3-3s.6 1.8 2.9 2.3c2.4.5 6.6-.4 11.4-2.1 6.7-2.5 8.8-5.4 9.5-7.3.6-1.6-.5-3.3-.5-3.3s1.6.7 2 2.2c.8 2.6-.7 7.3-11 11.2z"/><path d="m126.8 134.2c-1.1 8.1-6.3 9-6.3 9s4.7-3.7 3.7-9.8c-.3-2-1.7-5.7-2-7.7-.6-3.2 1.2-4.9 1.2-4.9s-.2 1.6.7 4.6c.9 3.1 3.2 5.2 2.7 8.8z"/><path d="m117.1 125.8c-.3-.6-1.1-.5-1.3 0-.4 1.1-1.1 2.5-1.8 3.5-1 1.3-2.5 2.1-3.6 3.2-3.6 3.6-7.1 5.6-7.7 8.6-.9 4.1 3.4 6.6 3.4 6.6s-1.8-5.1-1-6.6c1.7-3.4 3.6-4.6 5.9-6.8 1.4-1.3 4-3.9 5-4.9.2-.2.5-.1.6.1.4 1.1 1.3 3.5 1.8 2.5.7-1.5-.5-4.4-1.3-6.2z"/><path d="m99.2 142.9c.5 2.3 2.4 4.8 5.3 6.1 2 .9 4.3.9 5.6 1.3 1.1.4-.1.7-.1.7s-13.7-.2-14.7-9.5c-1.2-11.3 8-13.6 13.8-16.8 1.6-.9 4.6-2.5 6.4-5.3 1.5-2.4 1.9-6.1 2.8-7.6 2.7-3.8 2.8-2.2 2.8-2.2s-1.1.6-1.6 2.2c-.7 2.1-.9 5.5-2.1 7.9-1.2 2.5-3.2 4.2-3.6 4.7-4.5 6-18.3 2.4-14.6 18.5z"/><path d="m128.6 165.4c.1.4 0 .5-.4.7l-1.4.6-1.6-6.9c-.1-.6-.7-.9-1.3-.7l-6.9 2.7c-1 .4-1.4 1.5-.9 2.4l3 5.9-2.2 1-4.2-7.9c-.5-.9-1.3-1.5-2.3-1.8-1-.2-2.1-.6-2.5-1.2-.8-1-.4-2.2-.4-2.2s5.3 3.6 12.5-.3c9.4-5 9.2-9.6 9.2-9.6s1.5.4 1 2.7c-.3 1.1-1.2 2.7-1.8 3.7-.5.7-.7 1.6-.5 2.5z"/></g><text fill="#fff" font-family="'HelveticaNeueLTStd-Bd'" font-size="9.0249" transform="matrix(1.7235 0 0 1.67 81.4688 72.0073)">HUTECH</text><text fill="#fff" font-family="'HelveticaNeueLTStd-Bd'" font-size="9.0249" transform="matrix(1.4971 0 0 1.54 81.4678 85.4673)">University</text><image height="749" overflow="visible" transform="matrix(.3508 0 0 .3836 261.1304 -24.9294)" width="958" xlink:href="50715DAD.jpg"/></svg>