<?xml version="1.0" encoding="utf-8"?>
<!-- Generator: Adobe Illustrator 24.2.0, SVG Export Plug-In . SVG Version: 6.00 Build 0)  -->
<svg version="1.1" id="Layer_1" xmlns="http://www.w3.org/2000/svg" xmlns:xlink="http://www.w3.org/1999/xlink" x="0px" y="0px"
	 viewBox="0 0 1046 288" enable-background="new 0 0 1046 288" xml:space="preserve">
<g>
	<g>
		<linearGradient id="SVGID_1_" gradientUnits="userSpaceOnUse" x1="-1525.4213" y1="-1.7923" x2="-1451.39" y2="-1.7923">
			<stop  offset="0" style="stop-color:#F9A51A"/>
			<stop  offset="0.5" style="stop-color:#FFDC00"/>
			<stop  offset="1" style="stop-color:#FFDC00"/>
		</linearGradient>
		<path fill="url(#SVGID_1_)" d="M-1492.92-31.482c3.84-2.99,7.87-6.05,12.64-7.34c1.42-0.38,3.99-0.03,4,1.86
			c0.55,7.96-0.35,15.99,0.73,23.92c1.32,12.27,4.02,25.18,12.29,34.79c3.16,3.88,7.72,6.09,11.87,8.73
			c-14.62,2.29-29.34,3.94-44.1,4.76c-6.89,0.08-14.01,0.68-20.65-1.5c-4.61-1.24-8.23-5.21-8.94-9.93
			c-1.51-8.87,2.24-17.51,6.34-25.16C-1512.03-12.822-1503.19-23.052-1492.92-31.482z"/>
		<linearGradient id="SVGID_2_" gradientUnits="userSpaceOnUse" x1="-1486.08" y1="79.5707" x2="-1298.54" y2="79.5707">
			<stop  offset="0" style="stop-color:#F9A51A"/>
			<stop  offset="0.5" style="stop-color:#FFDC00"/>
			<stop  offset="1" style="stop-color:#FFDC00"/>
		</linearGradient>
		<path fill="url(#SVGID_2_)" d="M-1304.07,11.308c1.74-0.86,3.67-0.69,5.53-0.35c-0.02,2.77-0.64,5.51-1.93,7.98
			c-12.79,26.81-27.41,52.89-45.57,76.46c-11.43,14.74-24.33,28.6-39.83,39.14c-12.21,8.25-26.6,14.34-41.57,13.9
			c-7.42-0.17-13.88-4.53-19.31-9.19c-10.61-9.53-18.24-21.88-24.39-34.63c-8.22-17.09-13.23-35.68-14.94-54.55
			c43.57-1.69,86.7-9.64,128.72-21.05C-1339.35,23.928-1321.38,18.488-1304.07,11.308z"/>
	</g>
	<g>
		<path fill="#BE1128" d="M-2302.16,70.228c6.21-0.62,12.48-0.15,18.71-0.25c0.12,19.58-0.09,39.16,0.1,58.75
			c21.27-0.06,42.54-0.09,63.81,0.01c0.2-19.59,0.01-39.18,0.09-58.77c10.89,0.04,21.79-0.16,32.68,0.12
			c-0.17,52.57-0.16,105.14-0.01,157.71c-10.88,0.26-21.77,0.06-32.65,0.12c-0.08-23.4,0.02-46.79-0.05-70.19
			c-21.31-0.14-42.62-0.15-63.93,0.01c-0.05,23.39,0.06,46.78-0.06,70.17c-10.66,0.03-21.33-0.01-31.99,0.01v-145.5
			C-2313.2,76.638-2308.68,71.058-2302.16,70.228z"/>
		<g>
			<path fill="#BE1128" d="M-2171.04,85.928c-0.08-8.64,7.9-16.27,16.52-15.96c15.04,0.02,30.09-0.11,45.14,0.07
				c17.25,0.55,35.44,5.29,47.85,17.97c12.27,12.79,17.06,30.81,18.58,48.03c1.54,21.06-0.22,43.55-11.49,61.95
				c-9.36,15.99-26.78,26.56-45.06,28.64c-15.92,1.8-31.97,1.18-47.96,1.29c-7.9-0.07-15.8,0.15-23.69-0.13
				C-2170.91,180.498-2171.13,133.218-2171.04,85.928z M-2139.35,97.698c0.06,33.83,0.05,67.65,0.01,101.48
				c12.42-0.08,25.14,1.32,37.31-1.87c9.41-2.48,17.87-9.09,21.63-18.2c5.24-12.67,5.15-26.71,4.5-40.18
				c-1.05-11.3-3.6-23.36-11.7-31.83c-6.84-7.24-17.24-9.59-26.88-9.56C-2122.77,97.638-2131.06,97.358-2139.35,97.698z"/>
		</g>
	</g>
	<g>
		<g>
			<path fill="#464646" d="M-2026.72,86.958c-0.54-8.88,7.23-17.24,16.19-16.99c18.02-0.04,36.05,0.01,54.07-0.02
				c9.04-0.1,18.26,0.2,26.91,3.08c7.22,2.24,14.18,6.16,18.73,12.34c6.29,8.01,8.38,18.6,7.56,28.59
				c-0.55,7.31-2.91,14.74-7.96,20.21c-2.89,3.5-6.89,5.74-10.47,8.44c8.58,3.98,16.75,10.21,20.41,19.2
				c3.7,9.29,3.83,19.66,2.12,29.4c-2.06,11.7-9.12,22.67-19.61,28.48c-11.34,6.64-24.79,8.1-37.69,8.24
				c-23.39-0.02-46.79,0.01-70.18-0.02C-2026.86,180.928-2026.69,133.938-2026.72,86.958z M-1995.58,97.678
				c-0.17,11.09-0.13,22.18-0.02,33.27c12.38,0.03,24.76,0,37.14,0.01c5.59,0.01,11.53-0.53,16.33-3.66
				c3.49-2.25,5.58-6.23,5.94-10.32c0.7-5.68-0.47-12.33-5.4-15.88c-4.91-3.34-11.17-3.35-16.89-3.54
				C-1970.84,97.628-1983.22,97.388-1995.58,97.678z M-1995.56,158.088c-0.21,13.7-0.15,27.41-0.03,41.12
				c12.7,0.27,25.42,0.02,38.12,0.12c7.18,0.09,14.88-1.08,20.59-5.78c4.49-3.77,5.49-10.06,5.43-15.62
				c-0.01-5.68-1.84-11.83-6.57-15.35c-5.26-3.87-12.09-4.15-18.37-4.43C-1969.45,158.018-1982.5,158.148-1995.56,158.088z"/>
		</g>
		<path fill="#464646" d="M-1634.35,70.008c5.65-0.05,11.31-0.13,16.97-0.03c7.45,0.03,14.23,6.6,14.64,14.01
			c0.31,21.34-0.29,42.7,0.3,64.03c12.88-15.91,25.36-32.16,38.11-48.18c12.62-0.12,25.26-0.24,37.88,0.06
			c-13.89,17.42-28.06,34.63-42.13,51.91c-0.85,0.79,0.22,1.88,0.51,2.69c10.4,17.95,20.71,35.95,31.12,53.9
			c3.57,6.52,7.68,12.74,10.9,19.44c-12.67,0.05-25.37,0.29-38.03-0.12c-5.64-11.28-11.86-22.26-17.73-33.42
			c-2.7-4.89-5.02-10.06-8.52-14.45c-1.44-1.63-3.03-3.48-5.25-3.96c-3.37-0.19-7.32,2.29-7.03,6.03
			c-0.14,15.31-0.06,30.63-0.03,45.94c-10.57,0.11-21.14,0.07-31.71,0.02C-1634.3,175.258-1634.3,122.638-1634.35,70.008z"/>
		<g>
			<path fill="#464646" d="M-1857.86,105.498c13.4-6.53,28.82-6.31,43.33-5.11c11.22,1.3,23.12,4.06,31.5,12.16
				c6.17,5.66,9.17,14.15,8.94,22.43c-0.1,31.08,0.14,62.15-0.12,93.23c-5.73,0.06-11.5,0.43-17.21-0.17
				c-4.74-0.66-8.06-4.5-10.17-8.51c-12.82,7.82-28.33,8.86-42.97,8.15c-10.19-0.9-20.39-4.65-28.09-11.51
				c-7.34-6.9-9.93-17.43-9.68-27.21c-0.16-9.66,2.4-20.33,10.31-26.59c10.14-7.86,22.98-11.36,35.57-12.63
				c9.23-1.8,19.54-1.53,27.43-7.33c4.83-3.45,3.77-11.93-1.74-14.1c-7.74-3.16-16.5-3.83-24.69-2.28
				c-4.72,0.81-9.02,3.57-11.31,7.83c-10.7,0.29-21.41,0.1-32.11,0.1C-1877.79,121.488-1868.89,110.818-1857.86,105.498z
				 M-1835.34,172.028c-5.55,1.48-12.27,3.62-14.37,9.6c-2.38,5.94-1.63,13.83,3.65,18.01c5.14,3.83,11.98,3.48,18.03,2.77
				c8.18-1,16-5.87,19.65-13.39c3.97-7.77,2.84-16.75,2.89-25.15C-1815.05,167.908-1825.26,169.828-1835.34,172.028z"/>
		</g>
		<path fill="#464646" d="M-1740.7,110.698c13.4-8.23,29.6-12.42,45.28-10.2c10.04,1.16,19.72,4.83,28.3,10.13
			c5.99,3.7,10.31,9.67,12.78,16.19c3.69,9.58,4.25,19.98,4.16,30.14c-0.08,23.65,0.14,47.3-0.1,70.95
			c-5.75-0.04-11.5,0.14-17.24-0.06c-5.56-0.12-11.14-3.32-13.42-8.51c-1.53-3.23-1.51-6.88-1.5-10.38
			c0.05-20.67-0.01-41.35,0.03-62.02c0.05-5.1-1.05-10.57-4.63-14.4c-8.66-8.93-24.51-9.33-33.47-0.63
			c-4.25,4.14-5.14,10.39-5.09,16.06c0.02,26.63-0.04,53.27,0.03,79.91c-10.89,0.04-21.78,0.12-32.66-0.05
			c0.11-24.95,0.03-49.91,0.04-74.87c-0.07-10.4,1.2-21.19,6.23-30.46C-1749.37,117.618-1745.44,113.518-1740.7,110.698z"/>
		<path fill="#464646" d="M-2301.4,268.108c5.49-3.13,11.95-3.03,18.07-2.92c-0.01,2.15-0.02,4.29-0.04,6.44
			c-8.53-0.8-18.31,1.84-22.57,9.92c-4.72,8.43-2.3,20.6,6.23,25.66c4.85,3.2,10.88,2.7,16.42,2.78c0,2.06,0,4.14-0.01,6.21
			c-6.81,0.36-14.14,0.52-20.14-3.23c-6.8-3.74-10.71-11.08-12.02-18.52v-8.03C-2313.28,278.828-2308.65,271.668-2301.4,268.108z"/>
		<path fill="#464646" d="M-2142.42,265.188c2.03,0,4.07,0,6.1,0c0.46,9.6,0.18,19.23,0.13,28.85c2.48,0.22,5.54,0.68,7.33-1.53
			c2.67-3.45,4.51-7.46,6.76-11.18c2.5-0.05,5-0.09,7.5-0.15c-2.99,4.94-5.33,10.41-9.53,14.49c3.18,1.07,6.43,3.13,7.07,6.7
			c0.7,4.55,0.15,9.18,0.39,13.77c-2.2,0.18-4.4,0.18-6.59,0c-0.19-4.46,0.94-9.28-0.92-13.48c-2.83-3.6-8.03-1.86-11.96-2.34
			c0.03,5.31,0.13,10.62-0.07,15.93c-2.11,0.02-4.22,0.02-6.33,0C-2142.57,299.228-2142.8,282.198-2142.42,265.188z"/>
		<path fill="#464646" d="M-2077.94,265.458c2.09-0.93,4.52-0.36,6.75-0.48c-2.34,3.06-5.06,5.79-7.62,8.66
			c-1.3,0.06-2.59,0.12-3.87,0.17C-2081.46,270.838-2079.88,268.008-2077.94,265.458z"/>
		<path fill="#464646" d="M-2000.6,265.188c2.01,0,4.03,0,6.05-0.01c0.28,17.02,0.09,34.05,0.1,51.07c-2.09,0.02-4.18,0.02-6.26,0
			C-2000.82,299.228-2001.03,282.198-2000.6,265.188z"/>
		<path fill="#464646" d="M-1831.6,265.188c2.01,0,4.03,0,6.05-0.01c0.24,6.21,0.09,12.43,0.13,18.65
			c7.12-6.01,20.93-3.86,22.92,6.22c1.51,8.56,0.22,17.36,0.77,26.01c-2.2,0.24-4.42,0.27-6.62,0.15
			c0.03-6.42,0.06-12.85,0.04-19.28c-0.04-2.95-0.26-6.36-2.68-8.41c-4.65-3.9-12.97-1.42-14.07,4.77
			c-0.85,7.61-0.09,15.31-0.39,22.96c-2.09,0.02-4.18,0.02-6.26,0C-1831.82,299.228-1832.04,282.188-1831.6,265.188z"/>
		<path fill="#464646" d="M-1566.21,265.208c2.16,0.01,4.32,0.01,6.48,0.02c-0.05,6.04-0.16,12.08,0.07,18.11
			c5.28-3.11,12.15-4.02,17.59-0.77c4.28,2.47,5.71,7.74,5.82,12.37c0.13,7.1,0.13,14.2-0.04,21.3c-2.12,0.03-4.24,0.03-6.34,0.01
			c-0.31-7.42,0.1-14.85-0.19-22.27c-0.04-3.66-2.99-6.91-6.66-7.18c-4.98-1.06-10.14,3.05-10.2,8.14
			c-0.26,7.04-0.07,14.1-0.03,21.15c-2.18,0.23-4.37,0.23-6.54,0.06C-1566.11,299.168-1566.19,282.188-1566.21,265.208z"/>
		<path fill="#464646" d="M-1496.44,264.928c2.07,0.02,4.16,0.04,6.25,0.1c-2.32,3.06-5.02,5.8-7.62,8.62
			c-1.3,0.05-2.58,0.11-3.86,0.15C-1500.47,270.548-1498.43,267.728-1496.44,264.928z"/>
		<path fill="#464646" d="M-1880.85,268.588c2.09-0.62,4.31-0.35,6.47-0.42c-2.26,3.02-4.68,5.95-7.5,8.45
			c-1.45,0.41-2.98,0.29-4.45,0.39C-1884.53,274.188-1882.92,271.228-1880.85,268.588z"/>
		<path fill="#464646" d="M-2093.34,268.988c1.9,0,3.81,0.02,5.73,0.04c2.1,2.9,4.2,5.81,6.09,8.86c-1.55-0.03-3.11,0-4.64-0.17
			c-1.7-1.55-2.9-3.53-4.31-5.32c-1.45,1.77-2.85,3.57-4.21,5.41c-1.6,0.01-3.2,0.02-4.79,0.02
			C-2097.6,274.768-2095.49,271.858-2093.34,268.988z"/>
		<path fill="#464646" d="M-1512.11,269.338c1.78-0.2,3.58-0.14,5.39-0.14c2.15,2.84,4.24,5.73,6.21,8.71
			c-1.62,0.03-3.24,0.06-4.84,0.09c-1.36-1.81-2.71-3.62-4.12-5.37c-1.46,1.72-2.82,3.52-4.14,5.36c-1.62-0.02-3.23-0.04-4.82-0.06
			C-1516.4,275.018-1514.69,271.808-1512.11,269.338z"/>
		<path fill="#464646" d="M-1933.69,270.668c1.37-0.48,3.12-0.84,4.39,0.1c1.45,1.38,0.74,3.48,0.68,5.21
			c-1.89,0.42-3.81,0.41-5.7-0.01C-1934.39,274.188-1934.82,272.228-1933.69,270.668z"/>
		<path fill="#464646" d="M-2061.67,272.638c2.09-0.04,4.19-0.04,6.29,0c0.05,2.83,0.06,5.67,0.06,8.5
			c4.19,0.21,8.38,0.17,12.58,0.09c-0.02,2.13-0.03,4.26-0.03,6.39c-4.2-0.16-8.39-0.2-12.58,0.07c0.09,5.77-0.04,11.55,0.04,17.33
			c0.03,1.71,0.1,4.1,2.11,4.71c3.43,0.75,6.98,0.37,10.47,0.47c-0.01,1.95-0.01,3.9,0.01,5.85c-5.18,0.13-11.42,1.6-15.71-2.14
			c-3.41-2.96-3.46-7.81-3.38-11.96C-2061.69,292.178-2061.92,282.408-2061.67,272.638z"/>
		<path fill="#464646" d="M-1480.71,272.638c2.1-0.04,4.21-0.04,6.33-0.01c0.04,2.84,0.06,5.67,0.06,8.51
			c4.18,0.21,8.38,0.17,12.58,0.09c-0.03,2.13-0.04,4.26-0.04,6.4c-4.19-0.17-8.39-0.21-12.57,0.06c0.16,6.38-0.18,12.78,0.15,19.15
			c-0.04,1.57,1.22,2.99,2.82,3.08c3.19,0.44,6.43,0.23,9.65,0.28c-0.02,1.95-0.01,3.9,0.01,5.85c-4.63,0.2-9.67,1.11-14.01-0.9
			c-3.64-1.96-5.19-6.24-5.08-10.19C-1480.78,294.188-1480.94,283.408-1480.71,272.638z"/>
		<path fill="#464646" d="M-2268.13,283.268c6.7-4.02,16.07-3.75,22.33,1.02c3.84,2.97,5.64,7.9,5.64,12.66
			c0.04,6.42,0.09,12.86-0.09,19.28c-2.11,0.04-4.23,0.04-6.34,0.02c-0.37-7.31,0.3-14.65-0.31-21.94
			c-1.43-6.75-10.13-9.23-15.9-6.65c-6.93,3.08-8.8,13.08-4.2,18.86c2.69,3.58,7.69,5.28,11.97,3.85c2.12-0.81,3.86-2.33,5.72-3.6
			c0.06,2.33,0.32,4.7-0.1,7.01c-6.21,5.37-16.5,3.9-21.72-2.17C-2278.44,303.758-2277.59,289.088-2268.13,283.268z"/>
		<path fill="#464646" d="M-2230.04,292.018c0.12-5.7,4.95-10.74,10.57-11.36c4.49-0.8,8.93,1.1,12.08,4.26
			c2.83-2.34,6.07-4.59,9.93-4.39c6.43-0.49,12.85,4.77,12.94,11.36c0.18,8.12,0,16.26,0.05,24.38c-2.22,0.06-4.45,0-6.66-0.26
			c0.21-6.68,0.06-13.37,0.15-20.05c-0.07-2.39,0.1-5.06-1.47-7.05c-2.08-2.78-6.36-2.79-9.07-0.95c-2.05,1.66-2.56,4.46-2.55,6.97
			c-0.08,7.11,0.18,14.22-0.11,21.33c-2.1,0.01-4.2,0.01-6.29-0.01c-0.11-7.12,0.05-14.25-0.05-21.37c0.02-2.8-0.7-6.04-3.36-7.48
			c-2.73-1.3-6.69-0.93-8.41,1.82c-1.31,1.97-1.23,4.44-1.32,6.71c-0.01,6.76,0.01,13.53,0.04,20.29c-2.2,0.11-4.4,0.07-6.59-0.2
			C-2229.91,308.018-2230.18,300.018-2230.04,292.018z"/>
		<path fill="#464646" d="M-2104.64,287.798c5.83-8.22,18.92-9.81,26.51-3.18c2.29,1.88,3.9,4.42,5.04,7.13
			c-7.88,4.24-15.6,8.8-23.55,12.92c-0.61-1.81-3.85-4.57-1.11-5.88c4.86-2.94,9.97-5.44,14.87-8.29c0.72-1.58-1.16-2.18-2.2-2.85
			c-3.87-1.69-8.84-1.24-12.11,1.54c-6.31,5.13-5.42,16.82,1.99,20.51c3.49,1.69,7.82,1.55,11.27-0.17c3.47-1.9,4.75-5.92,5.76-9.49
			c2.03,0.12,4.08,0.19,6.08,0.64c0.87,2.58-0.82,5.35-1.92,7.67c-5.26,9.46-19.32,11.52-27.47,4.67
			C-2109.06,307.218-2110.36,295.308-2104.64,287.798z"/>
		<g>
			<path fill="#464646" d="M-1977.01,284.448c6.81-5.58,17.75-5.22,24.01,1.04c1.16,0.93,2.03,2.33,3.5,2.82
				c1.03-0.38,2.06-0.78,3.08-1.21c-0.95-2.02-1.42-4.19-1.35-6.41c1.45-0.04,2.91-0.06,4.38-0.06c-0.08,2.32,0.18,4.72-0.42,6.99
				c-0.77,1.98-3.08,2.54-4.71,3.59c1.66,6.11,1.8,13.15-2.22,18.41c-5.93,8.67-19.55,9.93-27.13,2.75
				C-1986.01,305.318-1985.64,290.958-1977.01,284.448z M-1969.16,287.228c-8.51,2.46-10.33,14.85-4.22,20.63
				c3.67,3.55,9.81,3.99,14.07,1.27c6.62-4.3,7.03-15.3,0.78-20.1C-1961.46,286.658-1965.61,286.118-1969.16,287.228z"/>
		</g>
		<path fill="#464646" d="M-1934.49,281.228c2.02,0,4.03,0,6.06-0.01c0.5,11.66,0.23,23.35,0.14,35.02
			c-2.12,0.03-4.23,0.03-6.34,0.01C-1934.72,304.578-1934.99,292.878-1934.49,281.228z"/>
		<path fill="#464646" d="M-1884.18,281.248c2.15,0,4.3,0,6.45-0.01c0.02,11.63-0.09,23.27,0.06,34.9
			c-2.18,0.19-4.37,0.18-6.54-0.05C-1884.07,304.478-1884.14,292.858-1884.18,281.248z"/>
		<path fill="#464646" d="M-1856.78,284.618c4.68-3.57,10.77-3.53,16.38-3.42c0.11,2.14,0.08,4.28-0.13,6.42
			c-4.32-0.2-9.24-0.53-12.75,2.5c-5.43,4.14-5.4,13.51,0.23,17.47c3.53,2.96,8.38,2.58,12.69,2.59c0.04,2,0.06,4.01,0.09,6.02
			c-6.25,0.58-13.22,0.15-18.04-4.38C-1866.47,304.988-1865.79,290.428-1856.78,284.618z"/>
		<path fill="#464646" d="M-1748.83,282.528c3.95-1.67,8.31-1.2,12.49-1.33c0.19,2.13,0.18,4.28-0.11,6.42
			c-4.35-0.21-9.27-0.52-12.78,2.55c-5.31,4.18-5.38,13.38,0.19,17.37c3.55,2.98,8.42,2.65,12.76,2.63c0.06,2,0.09,4.01,0.09,6.02
			c-4.9,0.29-10.13,0.51-14.56-1.97c-5.9-3-9.71-9.64-9.15-16.27C-1759.89,291.128-1755.11,284.928-1748.83,282.528z"/>
		<path fill="#464646" d="M-1724.04,285.388c5.19-5.11,13.32-5.91,20.03-3.83c5.8,1.78,10.24,7.25,10.55,13.36
			c0.32,7.1,0.12,14.22,0.07,21.33c-2.1,0.02-4.19,0.02-6.28-0.01c-0.41-7.29,0.28-14.62-0.33-21.89
			c-1.96-8.14-13.95-10.22-19.34-4.27c-5.57,5.79-3.97,16.91,3.79,19.96c4.66,2.24,9.6-0.18,13.15-3.29
			c0.05,2.37,0.05,4.76,0.03,7.14c-5.9,4.47-14.74,4.16-20.29-0.71C-1730.74,306.488-1731.49,292.818-1724.04,285.388z"/>
		<g>
			<path fill="#464646" d="M-1672.11,281.338c6.91-2.19,15.03-0.05,19.67,5.6c6.94,8.1,4.96,22.17-4.46,27.51
				c-8.83,5.61-22.05,1.86-26.15-7.89C-1687.65,297.008-1682.44,284.288-1672.11,281.338z M-1670.16,287.238
				c-8.22,2.41-10.13,14.12-4.68,20.08c4.05,4.55,11.92,4.77,16.24,0.5c4.1-3.99,4.54-10.75,1.93-15.66
				C-1659.2,287.498-1665.25,285.618-1670.16,287.238z"/>
		</g>
		<path fill="#464646" d="M-1602.86,285.568c5.69-6.92,17.95-6.78,23.32,0.46c2.18,2.8,3.19,6.35,3.12,9.88
			c0.02,6.78,0.01,13.56-0.03,20.34c-2.09,0.02-4.18,0.02-6.26,0c-0.31-7.08,0.07-14.17-0.16-21.25c-0.13-4.73-4.74-9.06-9.55-8.2
			c-4.03,0.41-7.28,4.13-7.36,8.15c-0.21,7.02-0.09,14.06,0.02,21.09c-2.22,0.24-4.45,0.29-6.66,0.22
			c0.04-6.8-0.08-13.59,0.03-20.37C-1606.34,292.188-1605.27,288.418-1602.86,285.568z"/>
		<path fill="#464646" d="M-1522.14,285.248c5.22-5.05,13.38-5.76,20.05-3.6c5.7,1.87,10.03,7.31,10.32,13.34
			c0.28,7.06-0.03,14.13,0.15,21.19c-2.2,0.16-4.4,0.14-6.57-0.12c0.09-6.71,0.22-13.42,0.01-20.12c-0.03-5.34-5.24-9.11-10.25-9.21
			c-5.39-0.65-10.86,3.05-12.01,8.39c-2.05,6.28,1.54,14.14,8.3,15.46c4.44,1.34,8.65-1.25,11.5-4.47
			c-0.09,2.56-0.11,5.12-0.09,7.68c-5.36,4.33-13.39,4.27-18.96,0.4C-1528.9,307.928-1530.28,292.918-1522.14,285.248z"/>
		<path fill="#464646" d="M-1967.41,326.958c-3.2-1.71-2.35-7.33,1.64-6.63c3.53,0.49,2.64,4.43,1.36,6.63H-1967.41z"/>
	</g>
</g>
<g>
	<g>
		<linearGradient id="SVGID_3_" gradientUnits="userSpaceOnUse" x1="804.5787" y1="47.4988" x2="878.61" y2="47.4988">
			<stop  offset="0" style="stop-color:#F9A51A"/>
			<stop  offset="0.5" style="stop-color:#FFDC00"/>
			<stop  offset="1" style="stop-color:#FFDC00"/>
		</linearGradient>
		<path fill="url(#SVGID_3_)" d="M837.08,17.809c3.84-2.99,7.87-6.05,12.64-7.34c1.42-0.38,3.99-0.03,4,1.86
			c0.55,7.96-0.35,15.99,0.73,23.92c1.32,12.27,4.02,25.18,12.29,34.79c3.16,3.88,7.72,6.09,11.87,8.73
			c-14.62,2.29-29.34,3.94-44.1,4.76c-6.89,0.08-14.01,0.68-20.65-1.5c-4.61-1.24-8.23-5.21-8.94-9.93
			c-1.51-8.87,2.24-17.51,6.34-25.16C817.97,36.469,826.81,26.239,837.08,17.809z"/>
		<linearGradient id="SVGID_4_" gradientUnits="userSpaceOnUse" x1="843.92" y1="128.8618" x2="1031.46" y2="128.8618">
			<stop  offset="0" style="stop-color:#F9A51A"/>
			<stop  offset="0.5" style="stop-color:#FFDC00"/>
			<stop  offset="1" style="stop-color:#FFDC00"/>
		</linearGradient>
		<path fill="url(#SVGID_4_)" d="M1025.93,60.599c1.74-0.86,3.67-0.69,5.53-0.35c-0.02,2.77-0.64,5.51-1.93,7.98
			c-12.79,26.81-27.41,52.89-45.57,76.46c-11.43,14.74-24.33,28.6-39.83,39.14c-12.21,8.25-26.6,14.34-41.57,13.9
			c-7.42-0.17-13.88-4.53-19.31-9.19c-10.61-9.53-18.24-21.88-24.39-34.63c-8.22-17.09-13.23-35.68-14.94-54.55
			c43.57-1.69,86.7-9.64,128.72-21.05C990.65,73.219,1008.62,67.779,1025.93,60.599z"/>
	</g>
	<g>
		<path fill="#BE1128" d="M27.84,119.519c6.21-0.62,12.48-0.15,18.71-0.25c0.12,19.58-0.09,39.16,0.1,58.75
			c21.27-0.06,42.54-0.09,63.81,0.01c0.2-19.59,0.01-39.18,0.09-58.77c10.89,0.04,21.79-0.16,32.68,0.12
			c-0.17,52.57-0.16,105.14-0.01,157.71c-10.88,0.26-21.77,0.06-32.65,0.12c-0.08-23.4,0.02-46.79-0.05-70.19
			c-21.31-0.14-42.62-0.15-63.93,0.01c-0.05,23.39,0.06,46.78-0.06,70.17c-10.66,0.03-21.33-0.01-31.99,0.01v-145.5
			C16.8,125.929,21.32,120.349,27.84,119.519z"/>
		<g>
			<path fill="#BE1128" d="M158.96,135.219c-0.08-8.64,7.9-16.27,16.52-15.96c15.04,0.02,30.09-0.11,45.14,0.07
				c17.25,0.55,35.44,5.29,47.85,17.97c12.27,12.79,17.06,30.81,18.58,48.03c1.54,21.06-0.22,43.55-11.49,61.95
				c-9.36,15.99-26.78,26.56-45.06,28.64c-15.92,1.8-31.97,1.18-47.96,1.29c-7.9-0.07-15.8,0.15-23.69-0.13
				C159.09,229.789,158.87,182.509,158.96,135.219z M190.65,146.989c0.06,33.83,0.05,67.65,0.01,101.48
				c12.42-0.08,25.14,1.32,37.31-1.87c9.41-2.48,17.87-9.09,21.63-18.2c5.24-12.67,5.15-26.71,4.5-40.18
				c-1.05-11.3-3.6-23.36-11.7-31.83c-6.84-7.24-17.24-9.59-26.88-9.56C207.23,146.929,198.94,146.649,190.65,146.989z"/>
		</g>
	</g>
	<g>
		<path fill="#464646" d="M303.28,136.249c-0.54-8.88,7.23-17.24,16.19-16.99c18.02-0.04,36.05,0.01,54.07-0.02
			c9.04-0.1,18.26,0.2,26.91,3.08c7.22,2.24,14.18,6.16,18.73,12.34c6.29,8.01,8.38,18.6,7.56,28.59
			c-0.55,7.31-2.91,14.74-7.96,20.21c-2.89,3.5-6.89,5.74-10.47,8.44c8.58,3.98,16.75,10.21,20.41,19.2
			c3.7,9.29,3.83,19.66,2.12,29.4c-2.06,11.7-9.12,22.67-19.61,28.48c-11.34,6.64-24.79,8.1-37.69,8.24
			c-23.39-0.02-46.79,0.01-70.18-0.02C303.14,230.219,303.31,183.229,303.28,136.249z M334.42,146.969
			c-0.17,11.09-0.13,22.18-0.02,33.27c12.38,0.03,24.76,0,37.14,0.01c5.59,0.01,11.53-0.53,16.33-3.66
			c3.49-2.25,5.58-6.23,5.94-10.32c0.7-5.68-0.47-12.33-5.4-15.88c-4.91-3.34-11.17-3.35-16.89-3.54
			C359.16,146.919,346.78,146.679,334.42,146.969z M334.44,207.379c-0.21,13.7-0.15,27.41-0.03,41.12
			c12.7,0.27,25.42,0.02,38.12,0.12c7.18,0.09,14.88-1.08,20.59-5.78c4.49-3.77,5.49-10.06,5.43-15.62
			c-0.01-5.68-1.84-11.83-6.57-15.35c-5.26-3.87-12.09-4.15-18.37-4.43C360.55,207.309,347.5,207.439,334.44,207.379z"/>
	</g>
	<path fill="#464646" d="M695.65,119.299c5.65-0.05,11.31-0.13,16.97-0.03c7.45,0.03,14.23,6.6,14.64,14.01
		c0.31,21.34-0.29,42.7,0.3,64.03c12.88-15.91,25.36-32.16,38.11-48.18c12.62-0.12,25.26-0.24,37.88,0.06
		c-13.89,17.42-28.06,34.63-42.13,51.91c-0.85,0.79,0.22,1.88,0.51,2.69c10.4,17.95,20.71,35.95,31.12,53.9
		c3.57,6.52,7.68,12.74,10.9,19.44c-12.67,0.05-25.37,0.29-38.03-0.12c-5.64-11.28-11.86-22.26-17.73-33.42
		c-2.7-4.89-5.02-10.06-8.52-14.45c-1.44-1.63-3.03-3.48-5.25-3.96c-3.37-0.19-7.32,2.29-7.03,6.03
		c-0.14,15.31-0.06,30.63-0.03,45.94c-10.57,0.11-21.14,0.07-31.71,0.02C695.7,224.549,695.7,171.929,695.65,119.299z"/>
	<g>
		<path fill="#464646" d="M472.14,154.789c13.4-6.53,28.82-6.31,43.33-5.11c11.22,1.3,23.12,4.06,31.5,12.16
			c6.17,5.66,9.17,14.15,8.94,22.43c-0.1,31.08,0.14,62.15-0.12,93.23c-5.73,0.06-11.5,0.43-17.21-0.17
			c-4.74-0.66-8.06-4.5-10.17-8.51c-12.82,7.82-28.33,8.86-42.97,8.15c-10.19-0.9-20.39-4.65-28.09-11.51
			c-7.34-6.9-9.93-17.43-9.68-27.21c-0.16-9.66,2.4-20.33,10.31-26.59c10.14-7.86,22.98-11.36,35.57-12.63
			c9.23-1.8,19.54-1.53,27.43-7.33c4.83-3.45,3.77-11.93-1.74-14.1c-7.74-3.16-16.5-3.83-24.69-2.28
			c-4.72,0.81-9.02,3.57-11.31,7.83c-10.7,0.29-21.41,0.1-32.11,0.1C452.21,170.779,461.11,160.109,472.14,154.789z M494.66,221.319
			c-5.55,1.48-12.27,3.62-14.37,9.6c-2.38,5.94-1.63,13.83,3.65,18.01c5.14,3.83,11.98,3.48,18.03,2.77c8.18-1,16-5.87,19.65-13.39
			c3.97-7.77,2.84-16.75,2.89-25.15C514.95,217.199,504.74,219.119,494.66,221.319z"/>
	</g>
	<path fill="#464646" d="M589.3,159.989c13.4-8.23,29.6-12.42,45.28-10.2c10.04,1.16,19.72,4.83,28.3,10.13
		c5.99,3.7,10.31,9.67,12.78,16.19c3.69,9.58,4.25,19.98,4.16,30.14c-0.08,23.65,0.14,47.3-0.1,70.95
		c-5.75-0.04-11.5,0.14-17.24-0.06c-5.56-0.12-11.14-3.32-13.42-8.51c-1.53-3.23-1.51-6.88-1.5-10.38
		c0.05-20.67-0.01-41.35,0.03-62.02c0.05-5.1-1.05-10.57-4.63-14.4c-8.66-8.93-24.51-9.33-33.47-0.63
		c-4.25,4.14-5.14,10.39-5.09,16.06c0.02,26.63-0.04,53.27,0.03,79.91c-10.89,0.04-21.78,0.12-32.66-0.05
		c0.11-24.95,0.03-49.91,0.04-74.87c-0.07-10.4,1.2-21.19,6.23-30.46C580.63,166.909,584.56,162.809,589.3,159.989z"/>
</g>
<g>
	<linearGradient id="SVGID_5_" gradientUnits="userSpaceOnUse" x1="-277.4407" y1="87.4565" x2="-203.4093" y2="87.4565">
		<stop  offset="0" style="stop-color:#F9A51A"/>
		<stop  offset="0.5" style="stop-color:#FFDC00"/>
		<stop  offset="1" style="stop-color:#FFDC00"/>
	</linearGradient>
	<path fill="url(#SVGID_5_)" d="M-244.939,57.767c3.84-2.99,7.87-6.05,12.64-7.34c1.42-0.38,3.99-0.03,4,1.86
		c0.55,7.96-0.35,15.99,0.73,23.92c1.32,12.27,4.02,25.18,12.29,34.79c3.16,3.88,7.72,6.09,11.87,8.73
		c-14.62,2.29-29.34,3.94-44.1,4.76c-6.89,0.08-14.01,0.68-20.65-1.5c-4.61-1.24-8.23-5.21-8.94-9.93
		c-1.51-8.87,2.24-17.51,6.34-25.16C-264.049,76.427-255.209,66.197-244.939,57.767z"/>
	<linearGradient id="SVGID_6_" gradientUnits="userSpaceOnUse" x1="-238.0993" y1="168.8195" x2="-50.5593" y2="168.8195">
		<stop  offset="0" style="stop-color:#F9A51A"/>
		<stop  offset="0.5" style="stop-color:#FFDC00"/>
		<stop  offset="1" style="stop-color:#FFDC00"/>
	</linearGradient>
	<path fill="url(#SVGID_6_)" d="M-56.089,100.557c1.74-0.86,3.67-0.69,5.53-0.35c-0.02,2.77-0.64,5.51-1.93,7.98
		c-12.79,26.81-27.41,52.89-45.57,76.46c-11.43,14.74-24.33,28.6-39.83,39.14c-12.21,8.25-26.6,14.34-41.57,13.9
		c-7.42-0.17-13.88-4.53-19.31-9.19c-10.61-9.53-18.24-21.88-24.39-34.63c-8.22-17.09-13.23-35.68-14.94-54.55
		c43.57-1.69,86.7-9.64,128.72-21.05C-91.369,113.177-73.399,107.737-56.089,100.557z"/>
</g>
<g>
	<g>
		<linearGradient id="SVGID_7_" gradientUnits="userSpaceOnUse" x1="-546.994" y1="13.3351" x2="-481.0602" y2="13.3351">
			<stop  offset="0" style="stop-color:#F9A51A"/>
			<stop  offset="0.5" style="stop-color:#FFDC00"/>
			<stop  offset="1" style="stop-color:#FFDC00"/>
		</linearGradient>
		<path fill="url(#SVGID_7_)" d="M-512.09-17.233c2.31-1.21,4.9-2.84,7.61-2.06c1.67,1.36,1.1,3.86,1.27,5.76
			c-0.32,13.88,0.31,28.45,6.74,41.07c3.2,6.44,8.8,11.44,15.41,14.22c-15.33,2.38-30.78,4.43-46.31,4.41
			c-5.64,0.01-12.01-0.28-16.37-4.34c-4.11-4.28-3.64-10.9-2.3-16.23c2.95-10.63,9.56-19.8,16.76-27.98
			C-524.18-7.993-518.59-13.273-512.09-17.233z"/>
		<linearGradient id="SVGID_8_" gradientUnits="userSpaceOnUse" x1="-512.0801" y1="84.9872" x2="-346.6248" y2="84.9872">
			<stop  offset="0" style="stop-color:#F9A51A"/>
			<stop  offset="0.5" style="stop-color:#FFDC00"/>
			<stop  offset="1" style="stop-color:#FFDC00"/>
		</linearGradient>
		<path fill="url(#SVGID_8_)" d="M-351.94,25.137c1.57-0.62,3.23-0.94,4.91-1.28c0.75,2.45,0.44,5.05-0.77,7.3
			c-13.46,28.17-29.13,55.6-49.73,79.21c-11.13,12.42-23.84,23.99-39.26,30.77c-8.59,3.6-18.15,6.13-27.47,4.45
			c-11.09-3.34-18.97-12.68-25.41-21.83c-12.79-19.19-20.65-41.74-22.41-64.75c39.61-1.33,78.83-8.78,116.95-19.39
			C-380.54,35.427-365.98,30.947-351.94,25.137z"/>
	</g>
	<g>
		<path fill="#BE1128" d="M-1245.34,90.417c-0.06-7.04,5.84-13.53,12.88-14.03c5.12-0.29,10.26-0.01,15.38-0.12
			c0.01,17.31,0.04,34.62-0.01,51.93c18.85-0.01,37.7,0,56.55,0c-0.06-17.31-0.04-34.61-0.01-51.92c9.58-0.01,19.17,0.04,28.76-0.02
			c0.07,46.54,0.06,93.09,0,139.63c-9.59-0.13-19.19,0-28.78-0.07c0.01-20.66-0.03-41.33,0.02-61.99c-18.84-0.01-37.68,0-56.53,0
			c0.03,20.67,0,41.35,0.02,62.02c-9.44-0.02-18.87,0-28.31-0.01C-1245.35,174.027-1245.41,132.217-1245.34,90.417z"/>
		<g>
			<path fill="#BE1128" d="M-1117.7,90.507c-0.05-7.58,6.79-14.27,14.35-14.2c12.99-0.03,25.98-0.08,38.97,0.03
				c15.57,0.47,32.08,4.44,43.38,15.83c11.48,12.03,15.71,29.04,16.69,45.21c1.02,17.92-0.88,36.96-10.59,52.49
				c-8.12,13.59-22.9,22.59-38.46,24.7c-11.6,1.65-23.34,1.21-35.02,1.27c-9.78,0-19.57-0.01-29.35,0
				C-1117.68,174.067-1117.74,132.287-1117.7,90.507z M-1089.69,100.737c0.05,29.99,0,59.97,0.03,89.96
				c10.14-0.21,20.39,0.74,30.42-1.23c8.14-1.65,16.01-6.27,20.14-13.68c5.01-8.89,5.46-19.36,5.91-29.31
				c-0.4-11.88-1.16-24.71-8.48-34.64c-5.13-7.28-14.18-10.72-22.83-10.99C-1072.89,100.607-1081.29,100.797-1089.69,100.737z"/>
		</g>
	</g>
	<g>
		<g>
			<path fill="#464646" d="M-990.06,90.427c-0.05-7.68,7.03-14.41,14.67-14.15c17.01-0.01,34.03,0.02,51.04-0.01
				c10.11,0.2,20.67,1.54,29.41,7c14.54,9.28,17.76,30.25,10.32,45.02c-2.88,5.38-7.79,9.33-13.11,12.16
				c7.81,3.26,15.06,8.94,18.45,16.88c3.1,7.32,3.18,15.51,2.38,23.29c-1.19,10.3-6.42,20.36-15.08,26.28
				c-9.74,6.68-21.83,8.79-33.43,8.93c-21.58,0.01-43.15,0.02-64.73-0.01C-990.02,174.027-990.16,132.217-990.06,90.427z
				 M-962.65,100.727c-0.05,9.8,0.08,19.61-0.07,29.41c11.13,0.16,22.26,0.05,33.38,0.06c5.57-0.05,11.75-0.73,15.95-4.78
				c4.21-4.72,4.46-12.14,1.83-17.69c-2.56-5.22-8.79-6.62-14.09-6.82C-937.98,100.537-950.32,100.857-962.65,100.727z
				 M-962.65,154.217c0,12.16-0.01,24.32,0,36.49c11.1-0.01,22.21-0.01,33.31,0c6.55-0.15,13.68-0.91,18.85-5.34
				c4.07-3.7,4.83-9.62,4.53-14.82c-0.2-4.95-2.17-10.2-6.52-12.94c-4.45-2.69-9.82-3.16-14.9-3.38
				C-939.14,154.187-950.9,154.237-962.65,154.217z"/>
		</g>
		<path fill="#464646" d="M-643.15,76.277c4.91,0.05,9.83-0.09,14.74,0.04c7.31,0.05,13.59,6.92,13.27,14.17
			c0,18.35,0.04,36.7-0.02,55.05c11.34-14.2,22.52-28.55,33.8-42.8c11.21,0.01,22.43,0.02,33.65-0.01
			c-12.63,15.56-25.32,31.07-37.93,46.65c12.9,22.1,25.52,44.36,38.45,66.45c-11.19,0.06-22.39-0.09-33.59,0.08
			c-5.74-10.29-11.15-20.76-16.77-31.11c-2.59-4.65-4.72-9.77-8.74-13.41c-2.96-3.49-9.36-0.27-8.83,4.06
			c-0.02,13.46-0.01,26.92,0,40.38c-9.37,0.01-18.73,0.01-28.09,0C-643.11,169.307-643.24,122.797-643.15,76.277z"/>
		<g>
			<path fill="#464646" d="M-842.91,108.837c12-6.81,26.35-6.57,39.7-5.69c10.12,1.14,20.9,3.48,28.47,10.79
				c5.37,4.94,8.14,12.3,7.94,19.54c-0.05,27.6,0.1,55.21-0.08,82.81c-5.35-0.37-10.76,0.35-16.07-0.48
				c-3.87-0.87-6.47-4.15-8.16-7.53c-10.66,7.01-23.88,7.89-36.28,7.48c-9.69-0.51-19.49-3.86-26.73-10.45
				c-7.82-7.64-9.29-19.53-8-29.89c0.75-7.67,4.59-15.3,11.35-19.32c11.27-7.61,25.09-8.85,38.17-10.7
				c5.4-0.91,11.28-1.82,15.53-5.57c3.91-3.41,2.25-10.42-2.54-12.1c-7.8-2.82-16.62-3.55-24.57-0.91
				c-3.14,0.95-5.31,3.54-7.07,6.16c-9.47-0.03-18.95,0.04-28.43-0.04C-858.25,122.807-851.85,113.757-842.91,108.837z
				 M-819.3,166.107c-4.3,1.02-8.75,2.36-12.13,5.32c-4.58,5.32-4.72,14.53,0.77,19.28c4.93,3.72,11.65,3.45,17.44,2.4
				c7.17-1.15,13.8-5.91,16.63-12.68c2.96-6.7,1.83-14.19,2.09-21.28C-802.38,162.667-810.89,164.417-819.3,166.107z"/>
		</g>
		<path fill="#464646" d="M-738.05,112.837c11.88-7.62,26.41-11.33,40.48-9.63c9.44,1.29,18.68,4.55,26.59,9.92
			c6.05,4.25,9.73,11.09,11.58,18.12c2.27,8.54,2.22,17.49,2.19,26.27c0,19.43-0.02,38.87,0.01,58.31
			c-5.56-0.07-11.13,0.18-16.69-0.11c-6.63-0.5-11.99-6.62-11.84-13.23c-0.07-19.34,0-38.69-0.03-58.04
			c0.02-4.45-0.79-9.24-3.9-12.62c-7.65-8.09-22.09-8.51-29.95-0.5c-3.38,3.44-4.37,8.47-4.3,13.14c0,23.79-0.03,47.58,0.02,71.37
			c-9.64,0-19.28-0.01-28.91,0.01c0.08-23.44-0.08-46.89,0.08-70.33C-752.15,133.457-748.95,119.727-738.05,112.837z"/>
		<path fill="#464646" d="M-1232.97,255.907c4.73-3.11,10.54-3.19,15.99-3.07c0,1.76,0,3.52,0,5.29c-5.18-0.26-10.81,0.25-14.9,3.79
			c-7.94,6.17-7.18,20.42,1.71,25.38c3.93,2.5,8.75,1.96,13.18,2c0,1.81,0,3.62,0.01,5.44c-4.7,0.03-9.6,0.3-14.01-1.62
			c-7.35-2.96-12.38-10.71-12.23-18.62C-1243.7,266.987-1239.33,259.707-1232.97,255.907z"/>
		<path fill="#464646" d="M-758.85,252.867c1.76-0.01,3.53-0.01,5.3,0c-0.04,8.22,0,16.44-0.04,24.66
			c0.02,3.72,0.56,7.96,3.59,10.52c4.18,3.96,11.89,2.19,14.12-3.06c2.64-5.1,0.44-12.8-5.55-14.19c-3.54-1.19-7.07,0.45-10.11,2.13
			c0.02-1.9,0.03-3.79,0.05-5.68c4.96-2.33,11.16-2.85,15.79,0.52c7.64,5,8.05,16.97,1.86,23.26c-5.4,5.67-15.6,5.69-20.91-0.1
			c-2.85-3.06-4.07-7.32-4.07-11.42C-758.85,270.627-758.79,261.747-758.85,252.867z"/>
		<path fill="#464646" d="M-981.15,252.917c1.77-0.04,3.53-0.08,5.3-0.11c-0.01,8.9,0.02,17.8,0,26.69
			c0.1,4.14-1.22,8.35-4.05,11.42c-5.16,5.64-14.99,5.77-20.48,0.54c-6.36-6.02-6.49-17.84,0.81-23.19
			c4.63-3.89,11.28-3.51,16.46-0.97c0,1.87,0.01,3.74,0.04,5.61c-3.28-1.83-7.21-3.43-10.92-1.87c-6.93,2.46-7.77,13.03-2.1,17.24
			c3.41,2.67,8.89,2.64,11.91-0.63c2.59-2.68,3.15-6.6,3.1-10.17C-981.15,269.297-981.04,261.107-981.15,252.917z"/>
		<path fill="#464646" d="M-1091.08,259.527c0.95-1.1,1.82-3.07,3.62-2.63c1.44,0.13,1.93,1.74,2.82,2.62
			c-0.94,1.18-1.88,3.28-3.81,2.61C-1089.83,261.977-1090.2,260.327-1091.08,259.527z"/>
		<path fill="#464646" d="M-1076.04,258.787c1.75,0,3.5,0,5.25,0c0,2.39-0.01,4.78-0.02,7.18c3.42,0,6.83,0,10.25,0
			c0,1.68,0.02,3.36,0.04,5.05c-3.44,0-6.86,0-10.29,0c0.16,5.49-0.25,11,0.19,16.48c1.78,3.58,6.86,1.6,10.05,2.09
			c0,1.71,0,3.42-0.01,5.14c-3.56-0.11-7.28,0.48-10.71-0.76c-3.26-1.36-4.89-5.04-4.74-8.42
			C-1076.07,276.627-1076.02,267.707-1076.04,258.787z"/>
		<path fill="#464646" d="M-1056.18,258.777c1.77,0.02,3.53,0.04,5.3,0.08c-0.02,2.37-0.04,4.75-0.05,7.13
			c3.38,0,6.77-0.01,10.16-0.1c0.05,1.7,0.11,3.42,0.17,5.13c-3.44,0.01-6.89,0-10.33,0c0.14,5.53-0.24,11.08,0.2,16.6
			c1.94,3.4,6.83,1.52,10.02,1.95c0.02,1.72,0.03,3.44,0.05,5.16c-3.17-0.06-6.38,0.3-9.5-0.34c-3.56-0.8-5.98-4.37-5.96-7.93
			C-1056.24,277.237-1056.09,268.007-1056.18,258.777z"/>
		<path fill="#464646" d="M-664.91,258.847c1.77-0.03,3.55-0.05,5.34-0.07c-0.02,2.4-0.03,4.79-0.03,7.19
			c3.35,0.03,6.72-0.13,10.08,0.07c0.51,1.55,0.27,3.27,0.44,4.89c-3.51,0.11-7.02,0.12-10.52,0.09c0.32,6-0.75,12.13,0.75,18.01
			c3.19,0.62,6.44,0.68,9.69,0.63c-0.33,1.59,0.64,3.79-0.68,5.02c-3.38,0.08-6.92,0.48-10.16-0.69c-3.33-1.34-4.96-5.09-4.86-8.5
			C-664.94,276.607-664.8,267.727-664.91,258.847z"/>
		<path fill="#464646" d="M-578.7,258.907c1.8-0.07,3.61-0.12,5.43-0.16c0.02,2.4,0.08,4.8,0.05,7.21c3.4,0.01,6.81,0.01,10.23,0.01
			c-0.01,1.68-0.01,3.36,0,5.05c-3.42,0-6.83,0-10.24,0c0.28,5.7-0.49,11.5,0.39,17.13c2.39,2.58,6.67,1.08,9.84,1.45
			c-0.01,1.7-0.02,3.41-0.01,5.13c-3.3-0.1-6.68,0.38-9.9-0.44c-3.77-1.03-5.84-5.02-5.72-8.73
			C-578.72,276.677-578.56,267.787-578.7,258.907z"/>
		<path fill="#464646" d="M-953.51,258.857c1.82-0.04,3.64-0.06,5.47-0.07c-0.02,2.4,0,4.81,0,7.21c3.4-0.03,6.8-0.04,10.21-0.03
			c0,1.68,0,3.37,0.01,5.07c-3.41-0.01-6.82-0.02-10.23-0.05c0.36,5.81-0.75,11.84,0.59,17.51c2.78,1.95,6.45,0.85,9.62,1.09
			c0,1.7,0,3.42,0,5.14c-4.22-0.25-9.2,1.05-12.68-2.03c-2.75-2.21-2.84-5.97-2.97-9.19
			C-953.53,275.287-953.46,267.067-953.51,258.857z"/>
		<g>
			<path fill="#464646" d="M-1200.26,265.367c7.39-0.76,14.86,4.68,15.97,12.12c1.97,8.6-5.19,17.78-14.06,17.72
				c-8.13,0.62-15.74-6.56-15.51-14.73C-1214.23,272.837-1207.83,265.917-1200.26,265.367z M-1201.22,270.677
				c-7.36,1.49-9.31,11.94-4.26,16.88c3.07,3.21,8.54,3.52,12.06,0.88c4.86-3.55,5.15-11.63,0.75-15.65
				C-1194.91,270.697-1198.27,269.887-1201.22,270.677z"/>
		</g>
		<path fill="#464646" d="M-1179.38,274.457c0.21-4.33,3.79-8.07,7.98-8.87c3.91-1.06,7.91,0.77,10.63,3.53
			c5.14-6.56,17.18-4.12,18.5,4.36c0.44,7.07,0.05,14.17,0.17,21.25c-1.82,0-3.64,0-5.46-0.01c-0.1-6.7,0.23-13.42-0.15-20.11
			c-0.24-4.05-5.68-5.23-8.5-3.04c-1.96,1.73-1.91,4.54-1.95,6.93c-0.02,5.41,0.03,10.82,0,16.24c-1.79-0.01-3.59-0.01-5.38-0.01
			c-0.14-6.72,0.3-13.46-0.21-20.16c-0.47-5.42-9.77-5.42-10.19,0.04c-0.36,6.7-0.02,13.42-0.14,20.13c-1.8-0.01-3.6-0.02-5.39-0.02
			C-1179.41,287.967-1179.66,281.207-1179.38,274.457z"/>
		<path fill="#464646" d="M-1136.23,274.437c0.15-6.11,7.07-10.49,12.77-8.77c2.3,0.4,4.1,1.97,5.8,3.48
			c5.06-6.55,17.06-4.21,18.44,4.2c0.38,7.11,0.03,14.25,0.15,21.37c-1.71,0.01-3.42,0.03-5.12,0.07
			c-0.83-7.04,0.27-14.16-0.61-21.18c-1.48-4.62-9.42-3.94-9.98,0.96c-0.66,6.69-0.11,13.44-0.29,20.16
			c-1.72,0.01-3.44,0.03-5.16,0.05c-0.59-6.96,0.71-14.02-0.61-20.92c-0.78-3.39-5.06-4-7.79-2.74c-1.78,1.14-2.44,3.31-2.38,5.33
			c-0.12,6.09,0.01,12.19-0.04,18.28c-1.75,0-3.49,0-5.23,0C-1136.23,287.967-1136.39,281.197-1136.23,274.437z"/>
		<path fill="#464646" d="M-1090.58,265.997c1.82-0.02,3.63-0.02,5.46-0.01c-0.03,9.58-0.01,19.16-0.02,28.75
			c-1.81-0.01-3.62-0.01-5.43-0.02C-1090.59,285.147-1090.56,275.577-1090.58,265.997z"/>
		<path fill="#464646" d="M-1037.25,285.377c-3.08-8.12,2.2-18.14,10.86-19.67c7-1.89,14.27,2.33,17.21,8.72
			c-6.48,3.6-12.97,7.15-19.41,10.82c-0.79-1.35-1.58-2.69-2.38-4.03c4.66-2.91,9.57-5.4,14.33-8.14
			c-2.83-2.81-7.28-3.53-10.82-1.69c-5.91,2.88-6.76,11.95-2.08,16.3c2.98,3.02,8.07,3.27,11.63,1.18c2.68-1.69,3.55-4.91,4.46-7.74
			c1.8,0.3,3.6,0.6,5.41,0.89c-0.83,5.27-4.07,10.31-9.24,12.16C-1024.89,297.347-1034.71,293.387-1037.25,285.377z"/>
		<g>
			<path fill="#464646" d="M-925.05,266.067c8.47-3.12,18.75,3.25,19.38,12.33c1.41,8.19-5.29,16.59-13.64,16.78
				c-7.13,0.76-14.35-4.51-15.63-11.58C-936.68,276.277-932.3,268.227-925.05,266.067z M-923.95,271.067
				c-7.62,2.82-7.74,15.17-0.34,18.35c6.06,3,13.71-2.23,13.26-8.93C-910.35,273.777-917.76,268.277-923.95,271.067z"/>
		</g>
		<path fill="#464646" d="M-884.19,265.927c1.74,0.02,3.49,0.03,5.24,0.05c0.07,6.13-0.17,12.26,0.09,18.39
			c0.16,3.27,3.22,6.03,6.51,5.82c3.29,0.25,6.44-2.42,6.57-5.74c0.25-6.16,0.02-12.34,0.08-18.5c1.81,0.01,3.62,0.03,5.43,0.06
			c-0.23,6.9,0.52,13.87-0.45,20.72c-0.74,4.53-4.86,7.37-8.96,8.67c-0.02,4.03,0,8.06,0,12.1c-1.76-0.01-3.52-0.01-5.27,0
			c0-4.04,0-8.08,0.01-12.12c-4.41-1.29-8.66-4.58-9.1-9.46C-884.46,279.267-884.13,272.587-884.19,265.927z"/>
		<g>
			<path fill="#464646" d="M-845.06,265.967c8.08-2.71,17.68,3.01,18.93,11.49c1.86,8.29-4.62,17.21-13.15,17.69
				c-7.65,1-15.38-4.92-16.28-12.6C-856.79,275.397-852.11,267.827-845.06,265.967z M-844.03,270.947c-3.52,1.22-5.98,4.8-6.06,8.5
				c-0.89,5.94,4.55,11.8,10.61,10.68c7.01-0.69,10.09-9.62,6.68-15.24C-834.95,271.067-839.97,269.407-844.03,270.947z"/>
		</g>
		<path fill="#464646" d="M-802.24,265.977c1.75-0.01,3.5-0.02,5.25-0.02c-0.11,6.17,0.16,12.35-0.12,18.52
			c-0.42,6.09-6.13,11.16-12.25,10.73c-6.04,0.33-11.64-4.63-12.03-10.67c-0.43-6.17-0.05-12.38-0.18-18.56
			c1.8-0.01,3.6-0.02,5.42-0.01c0.07,5.88-0.13,11.76,0.06,17.65c0.04,3.79,3.86,7.09,7.63,6.54c3.24-0.4,5.86-3.32,6.07-6.57
			C-801.95,277.737-802.33,271.847-802.24,265.977z"/>
		<path fill="#464646" d="M-786.77,269.137c2.14-2.91,5.6-3.9,9.07-4c0.03,1.66,0.06,3.34,0.1,5.01c-3.29,0.3-6.92,1.58-7.95,5.08
			c-1.73,6.32-0.8,12.98-0.95,19.45c-1.77-0.01-3.54,0.07-5.3,0.08c-0.01-9.6,0-19.2,0-28.79c1.7-0.01,3.42-0.02,5.14-0.02
			C-786.69,266.747-786.75,268.337-786.77,269.137z"/>
		<path fill="#464646" d="M-715.96,266.057c7.31-2.63,15.5,1.47,18.61,8.38c-6.47,3.6-13,7.09-19.38,10.83
			c-0.82-1.38-1.62-2.77-2.41-4.15c4.68-2.7,9.41-5.31,14.16-7.89c-2.99-3.71-8.93-3.62-12.41-0.68c-4.4,3.74-4.46,11.37-0.24,15.26
			c3.06,2.9,8.11,3.15,11.65,1c2.62-1.71,3.44-4.91,4.37-7.7c1.78,0.31,3.55,0.61,5.35,0.92c-0.71,3.38-1.84,6.87-4.56,9.19
			c-6.49,6.39-18.69,4.96-23.26-3.02C-729.08,280.397-725.05,268.567-715.96,266.057z"/>
		<path fill="#464646" d="M-624.27,269.087c2.24-2.8,5.62-3.96,9.14-3.95c0.01,1.66,0.03,3.32,0.06,4.98
			c-3.46,0.26-7.25,1.77-8.14,5.5c-1.48,6.24-0.41,12.76-0.74,19.12c-1.76-0.01-3.49-0.01-5.23-0.01
			c-0.03-9.58,0.04-19.16-0.03-28.74c1.68-0.02,3.37-0.02,5.08-0.01C-624.17,266.757-624.23,268.307-624.27,269.087z"/>
		<path fill="#464646" d="M-613.13,283.917c-2.26-7.99,3.44-17.07,11.69-18.3c6.93-1.66,13.87,2.58,16.82,8.81
			c-6.58,3.57-13.05,7.33-19.67,10.81c-0.62-1.41-1.57-2.72-1.78-4.27c4.52-2.82,9.32-5.17,13.93-7.87
			c-3.03-3.08-8.11-3.61-11.68-1.19c-5.44,3.57-5.57,12.62-0.42,16.49c2.96,2.24,7.29,2.38,10.53,0.67
			c2.93-1.62,3.85-5.06,4.92-7.97c1.72,0.29,3.45,0.59,5.19,0.89c-0.65,6.3-5.45,11.98-11.83,12.95
			C-603.04,296.687-611.52,291.657-613.13,283.917z"/>
		<path fill="#464646" d="M-524.9,269.097c2.23-2.8,5.62-3.78,9.07-4.06c0.08,1.69,0.15,3.39,0.24,5.1
			c-3.28,0.33-6.95,1.55-7.98,5.05c-1.79,6.35-0.66,13.05-0.99,19.55c-1.76-0.01-3.5-0.01-5.24-0.01
			c-0.03-9.59-0.01-19.17-0.02-28.76c1.71-0.01,3.43,0,5.16,0C-524.72,266.747-524.84,268.317-524.9,269.097z"/>
		<path fill="#464646" d="M-512.89,275.387c0.71-6.8,8.1-11.36,14.58-9.78c5.24,0.79,9.32,5.59,9.55,10.84
			c0.25,6.11,0.13,12.24,0.03,18.36c-1.74-0.04-3.46-0.08-5.18-0.1c-0.06-5.75,0.12-11.5-0.06-17.24c-0.04-3.1-2.25-6.11-5.3-6.81
			c-4.17-1.34-8.61,2.59-8.53,6.81c-0.18,5.75,0.02,11.51-0.07,17.27c-1.76-0.01-3.5-0.01-5.24-0.01
			C-512.99,288.277-513.39,281.807-512.89,275.387z"/>
		<path fill="#464646" d="M-691.36,278.387c-3.53-3.47-1.77-10.48,3.12-11.71c5.63-1.43,11.55-0.41,17.3-0.71
			c-0.01,1.68-0.01,3.37,0,5.06c-5.15,0.21-10.38-0.46-15.48,0.32c-0.44,0.56-1.33,1.67-1.78,2.22c4.67,4.76,12.69,3.52,17.19,8.62
			c3.22,4.05,1.02,11.08-4.25,12.07c-5.88,1.05-11.93,0.2-17.87,0.48c-0.01-1.73,0-3.45,0.02-5.17c5.23-0.05,10.47,0.28,15.69-0.1
			c1.98-0.1,2.87-2.28,2.15-3.96C-680.2,282.237-686.84,282.427-691.36,278.387z"/>
		<path fill="#464646" d="M-559.63,265.967c1.81,0,3.62,0,5.45,0.01c0.06,5.82-0.13,11.65,0.06,17.46
			c-0.08,4.42,4.88,8.04,9.05,6.38c2.52-0.98,4.57-3.46,4.55-6.24c0.18-5.86-0.03-11.72,0.06-17.58c1.8-0.02,3.61-0.04,5.43-0.04
			c-0.12,6.19,0.23,12.4-0.15,18.58c-0.45,6.1-6.12,11.12-12.25,10.68c-6.04,0.29-11.52-4.64-12.04-10.61
			C-559.86,278.397-559.52,272.177-559.63,265.967z"/>
		<path fill="#464646" d="M-483.27,277.527c-2.32-3.82-0.68-9.78,3.97-10.89c5.61-1.35,11.48-0.38,17.2-0.68
			c-0.01,1.68,0,3.38,0.01,5.07c-4.76,0.05-9.52-0.15-14.26,0.07c-2.05-0.39-3.54,2.89-1.55,3.88c4.99,2.96,11.69,2.76,15.78,7.29
			c3.25,4.08,0.87,11.04-4.37,12.01c-5.83,1.05-11.83,0.17-17.72,0.47c-0.03-1.72-0.04-3.44-0.03-5.15
			c5.25-0.11,10.53,0.27,15.78-0.15c1.55-0.04,2.14-1.57,2.41-2.85c-0.86-2.4-3.68-2.63-5.72-3.45
			C-475.77,281.747-480.43,280.947-483.27,277.527z"/>
	</g>
</g>
</svg>
