<svg xmlns="http://www.w3.org/2000/svg" viewBox="0 0 203.027 203.027">
	<path
		d="M57.034 166.534a23.723 23.723 0 013.664 12.685c0 13.128-10.681 23.809-23.809 23.809S13.08 192.347 13.08 179.219c0-4.522 1.276-8.919 3.692-12.731l13.664-23.069a7.5 7.5 0 0112.906 0l13.692 23.115zm133.48-123.158h-49.038v-1.025a7.5 7.5 0 00-7.5-7.5h-11.233v-6.495h30.661a7.5 7.5 0 007.5-7.5v-4.251C160.903 7.449 153.454 0 144.298 0H76.017c-9.156 0-16.605 7.449-16.605 16.605v4.251a7.5 7.5 0 007.5 7.5h30.662v6.495H86.339a7.5 7.5 0 00-7.5 7.5v1.025H58.84c-27.156 0-49.249 22.093-49.249 49.25v25.194a7.5 7.5 0 002.922 14.409h44.395a7.5 7.5 0 007.5-7.5 7.495 7.495 0 00-4.103-6.681v-16.932c0-4.429 3.603-8.032 8.032-8.032h10.502v2.547a7.5 7.5 0 007.5 7.5h47.636a7.5 7.5 0 007.5-7.5v-.329h49.038a7.5 7.5 0 007.5-7.5V50.876a7.499 7.499 0 00-7.499-7.5z" />
</svg>